<svg id="Layer_1" data-name="Layer 1" xmlns="http://www.w3.org/2000/svg" viewBox="0 0 388.18122 63.68881"><defs><style>.cls-1{fill:#fff;}.cls-2{fill:#e74e0f;}</style></defs><title>logo-popsport-new</title><path class="cls-1" d="M173.84053,42.86081a10.79819,10.79819,0,0,1-10.515-10.237v-1.797a10.7991,10.7991,0,0,1,10.515-10.238c5.83,0,10.557,4.986,10.557,11.136,0,6.151-4.727,11.136-10.557,11.136m1.843-31.7a18.80846,18.80846,0,0,0-12.358,4.662l.001-3.488h-10.902l-.001,51.354h10.902v-16.061a18.80846,18.80846,0,0,0,12.358,4.662c10.767,0,19.495-9.207,19.495-20.565,0-11.357-8.728-20.564-19.495-20.564"/><path class="cls-1" d="M79.00293,42.86081a10.79819,10.79819,0,0,1-10.515-10.237v-1.797a10.7991,10.7991,0,0,1,10.515-10.238c5.83,0,10.557,4.986,10.557,11.136,0,6.151-4.727,11.136-10.557,11.136m1.843-31.7a18.80846,18.80846,0,0,0-12.358,4.662l.001-3.488h-10.902l-.001,51.354h10.902v-16.061a18.80846,18.80846,0,0,0,12.358,4.662c10.767,0,19.495-9.207,19.495-20.565,0-11.357-8.728-20.564-19.495-20.564"/><polygon class="cls-1" points="388.181 12.335 379.943 12.335 379.943 0 369.059 0 369.059 12.335 364.025 12.335 364.025 21.309 369.059 21.309 369.059 51.058 379.943 51.058 379.943 21.309 388.181 21.309 388.181 12.335"/><path class="cls-1" d="M126.25255,42.86359a10.99944,10.99944,0,0,1-10.724-11.16,10.73253,10.73253,0,1,1,21.448,0,11.0001,11.0001,0,0,1-10.724,11.16m0-31.705c-11.863,0-21.479,9.198-21.479,20.545s9.616,20.545,21.479,20.545c11.862,0,21.479-9.198,21.479-20.545s-9.617-20.545-21.479-20.545"/><path class="cls-1" d="M259.9506,42.86081a10.79819,10.79819,0,0,1-10.515-10.237v-1.797a10.7991,10.7991,0,0,1,10.515-10.238c5.83,0,10.557,4.986,10.557,11.136,0,6.151-4.727,11.136-10.557,11.136m1.843-31.7a18.80846,18.80846,0,0,0-12.358,4.662l.001-3.488h-10.902l-.001,51.354h10.902v-16.061a18.80846,18.80846,0,0,0,12.358,4.662c10.767,0,19.495-9.207,19.495-20.565,0-11.357-8.728-20.564-19.495-20.564"/><path class="cls-1" d="M306.961,42.86359a10.99944,10.99944,0,0,1-10.724-11.16,10.73253,10.73253,0,1,1,21.448,0,11.0001,11.0001,0,0,1-10.724,11.16m0-31.705c-11.863,0-21.479,9.198-21.479,20.545s9.616,20.545,21.479,20.545c11.862,0,21.479-9.198,21.479-20.545s-9.617-20.545-21.479-20.545"/><path class="cls-1" d="M357.948,11.57629c-8.537-1.479-24.216,1.275-24.216,17.862v21.62h10.849v-18.807c0-13.281,13.367-11.018,13.367-11.018Z"/><path class="cls-1" d="M225.99372,22.64478c-2.74707-2.58984-5.88672-3.45312-9.5752-3.45312-4.55273,0-7.06445,1.4126-7.06445,3.8457,0,2.51172,2.27637,3.9248,7.2207,4.23877,7.2998.4707,16.56152,2.11914,16.56152,12.40186,0,6.82813-5.57227,12.71484-16.63965,12.71484-6.12207,0-12.24512-1.02051-17.89648-6.90723l4.71-6.82812c2.74707,3.06055,9.02637,5.33691,13.34375,5.416,3.61035.07813,6.98535-1.80566,6.98535-4.63086,0-2.66895-2.19727-3.76758-7.69238-4.082-7.2998-.5498-16.01172-3.21777-16.01172-12.00928,0-8.94775,9.26172-12.0874,16.32617-12.0874,6.04395,0,10.5957,1.17725,15.07031,5.10156Z"/><path class="cls-2" d="M43.9457,27.22732,7.75312,6.33152A5.16875,5.16875,0,0,0,0,10.80779v41.7916a5.16875,5.16875,0,0,0,7.75312,4.47627L43.9457,36.17985A5.16875,5.16875,0,0,0,43.9457,27.22732Z"/></svg>